<mxfile host="app.diagrams.net" modified="2024-02-12T17:07:44.233Z" agent="Mozilla/5.0 (X11; Linux x86_64) AppleWebKit/537.36 (KHTML, like Gecko) Chrome/121.0.0.0 Safari/537.36" version="23.1.2" etag="_OEgl1QVkoTls8ldONrh" type="github">
  <diagram name="Pagina-1" id="7bKf5Vow8AjvL3RL2f5p">
    <mxGraphModel>
      <root>
        <mxCell id="0" />
        <mxCell id="1" parent="0" />
      </root>
    </mxGraphModel>
  </diagram>
</mxfile>
